# Blender v2.93.5 OBJ File: ''
# www.blender.org
o Mesh_0054
v 1.446000 0.469800 0.007600
v 1.699900 0.552300 0.274700
v 1.230000 0.893700 0.007600
v 1.446000 1.050600 0.274700
v 0.893700 1.230000 0.007600
v 1.050600 1.446000 0.274700
v 0.469800 1.446000 0.007600
v 0.552300 1.699900 0.274700
v 0.000000 1.520400 0.007600
v 0.000000 1.787400 0.274700
v -0.469800 1.446000 0.007600
v -0.552300 1.699900 0.274700
v -0.893700 1.230000 0.007600
v -1.050600 1.446000 0.274700
v -1.230000 0.893700 0.007600
v -1.446000 1.050600 0.274700
v -1.446000 0.469800 0.007600
v -1.699900 0.552300 0.274700
v -1.520400 -0.000000 0.007600
v -1.787400 -0.000000 0.274700
v -1.446000 -0.469800 0.007600
v -1.699900 -0.552300 0.274700
v -1.230000 -0.893700 0.007600
v -1.446000 -1.050600 0.274700
v -0.893700 -1.230000 0.007600
v -1.050600 -1.446000 0.274700
v -0.469800 -1.446000 0.007600
v -0.552300 -1.699900 0.274700
v 0.000000 -1.520400 0.007600
v 0.000000 -1.787400 0.274700
v 0.469800 -1.446000 0.007600
v 0.552300 -1.699900 0.274700
v 0.893700 -1.230000 0.007600
v 1.050600 -1.446000 0.274700
v 1.230000 -0.893700 0.007600
v 1.446000 -1.050600 0.274700
v 1.446000 -0.469800 0.007600
v 1.699900 -0.552300 0.274700
v 1.520400 -0.000000 0.007600
v 1.787400 -0.000000 0.274700
v 1.939200 0.630100 0.426300
v 2.038900 -0.000000 0.426300
v 2.196600 0.713700 0.272200
v 2.309700 -0.000000 0.272200
v 2.316000 0.752500 -0.006700
v 2.435200 0.000000 -0.006700
v 2.182100 0.709000 -0.281900
v 2.294400 0.000000 -0.281900
v 1.916700 0.622800 -0.426300
v 2.015400 0.000000 -0.426300
v 1.681700 0.546400 -0.292000
v 1.768300 0.000000 -0.292000
v 1.649500 1.198500 0.426300
v 1.198500 1.649500 0.426300
v 0.630100 1.939200 0.426300
v 0.000000 2.038900 0.426300
v -0.630100 1.939200 0.426300
v -1.198500 1.649500 0.426300
v -1.649500 1.198500 0.426300
v -1.939100 0.630100 0.426300
v -2.038900 -0.000000 0.426300
v -1.939100 -0.630100 0.426300
v -1.649500 -1.198500 0.426300
v -1.198500 -1.649500 0.426300
v -0.630100 -1.939100 0.426300
v 0.000000 -2.038900 0.426300
v 0.630100 -1.939100 0.426300
v 1.198500 -1.649500 0.426300
v 1.649500 -1.198500 0.426300
v 1.939100 -0.630100 0.426300
v 1.868600 1.357600 0.272200
v 1.357600 1.868600 0.272200
v 0.713700 2.196600 0.272200
v 0.000000 2.309700 0.272200
v -0.713700 2.196600 0.272200
v -1.357600 1.868600 0.272200
v -1.868600 1.357600 0.272200
v -2.196600 0.713700 0.272200
v -2.309700 -0.000000 0.272200
v -2.196600 -0.713700 0.272200
v -1.868600 -1.357600 0.272200
v -1.357600 -1.868600 0.272200
v -0.713700 -2.196600 0.272200
v 0.000000 -2.309700 0.272200
v 0.713700 -2.196600 0.272200
v 1.357600 -1.868600 0.272200
v 1.868600 -1.357600 0.272200
v 2.196600 -0.713700 0.272200
v 1.970100 1.431400 -0.006700
v 1.431400 1.970100 -0.006700
v 0.752500 2.316000 -0.006700
v 0.000000 2.435200 -0.006700
v -0.752500 2.316000 -0.006700
v -1.431400 1.970100 -0.006700
v -1.970100 1.431400 -0.006700
v -2.316000 0.752500 -0.006700
v -2.435200 0.000000 -0.006700
v -2.316000 -0.752500 -0.006700
v -1.970100 -1.431400 -0.006700
v -1.431400 -1.970100 -0.006700
v -0.752500 -2.316000 -0.006700
v 0.000000 -2.435200 -0.006700
v 0.752500 -2.316000 -0.006700
v 1.431400 -1.970100 -0.006700
v 1.970100 -1.431400 -0.006700
v 2.316000 -0.752500 -0.006700
v 1.856200 1.348600 -0.281900
v 1.348600 1.856200 -0.281900
v 0.709000 2.182100 -0.281900
v 0.000000 2.294400 -0.281900
v -0.709000 2.182100 -0.281900
v -1.348600 1.856200 -0.281900
v -1.856200 1.348600 -0.281900
v -2.182100 0.709000 -0.281900
v -2.294400 0.000000 -0.281900
v -2.182100 -0.709000 -0.281900
v -1.856200 -1.348600 -0.281900
v -1.348600 -1.856200 -0.281900
v -0.709000 -2.182100 -0.281900
v 0.000000 -2.294400 -0.281900
v 0.709000 -2.182100 -0.281900
v 1.348600 -1.856200 -0.281900
v 1.856200 -1.348600 -0.281900
v 2.182100 -0.709000 -0.281900
v 1.630500 1.184600 -0.426300
v 1.184600 1.630500 -0.426300
v 0.622800 1.916700 -0.426300
v 0.000000 2.015400 -0.426300
v -0.622800 1.916700 -0.426300
v -1.184600 1.630500 -0.426300
v -1.630500 1.184600 -0.426300
v -1.916700 0.622800 -0.426300
v -2.015400 0.000000 -0.426300
v -1.916700 -0.622800 -0.426300
v -1.630500 -1.184600 -0.426300
v -1.184600 -1.630500 -0.426300
v -0.622800 -1.916700 -0.426300
v 0.000000 -2.015400 -0.426300
v 0.622800 -1.916700 -0.426300
v 1.184600 -1.630500 -0.426300
v 1.630500 -1.184600 -0.426300
v 1.916700 -0.622800 -0.426300
v 1.430600 1.039400 -0.292000
v 1.039400 1.430600 -0.292000
v 0.546400 1.681700 -0.292000
v 0.000000 1.768300 -0.292000
v -0.546400 1.681700 -0.292000
v -1.039400 1.430600 -0.292000
v -1.430600 1.039400 -0.292000
v -1.681700 0.546400 -0.292000
v -1.768300 0.000000 -0.292000
v -1.681700 -0.546400 -0.292000
v -1.430600 -1.039400 -0.292000
v -1.039400 -1.430600 -0.292000
v -0.546400 -1.681700 -0.292000
v 0.000000 -1.768300 -0.292000
v 0.546400 -1.681700 -0.292000
v 1.039400 -1.430600 -0.292000
v 1.430600 -1.039400 -0.292000
v 1.681700 -0.546400 -0.292000
vt 0.634900 0.770100
vt 0.131600 0.186600
vt 0.304700 0.873500
vt -0.110900 0.145100
vt -0.024300 0.634400
vt -0.379700 0.000500
vt -0.231300 0.137400
vt -0.616700 -0.209900
vt -0.239400 -0.432100
vt -0.777400 -0.412700
vt -0.046000 -0.854500
vt -0.844600 -0.524700
vt 0.272700 -0.961500
vt -0.831400 -0.484800
vt 0.589900 -0.704900
vt -0.773400 -0.282000
vt 0.778100 -0.181400
vt -0.711700 0.036100
vt 0.761800 0.404500
vt -0.673800 0.378000
vt 0.549200 0.822900
vt -0.661700 0.642500
vt 0.227700 0.912800
vt -0.652800 0.757200
vt -0.072900 0.645000
vt -0.612400 0.703600
vt -0.233300 0.128900
vt -0.511800 0.520400
vt -0.190700 -0.434600
vt -0.343500 0.284300
vt 0.039500 -0.833200
vt -0.127600 0.079000
vt 0.372200 -0.921800
vt 0.092500 -0.035200
vt 0.685700 -0.672400
vt 0.263500 -0.040400
vt 0.865900 -0.181300
vt 0.338700 0.035900
vt 0.847200 0.367800
vt 0.293000 0.134000
vt -0.815900 0.139900
vt -0.810500 0.156200
vt -0.477000 0.701800
vt -0.449600 0.386300
vt 0.620400 0.776900
vt 0.824100 0.368900
vt 0.333900 0.262200
vt 0.520800 0.157100
vt -0.824500 0.149200
vt -0.823000 0.161200
vt -0.677800 0.610200
vt -0.678500 0.357100
vt -0.822500 0.126400
vt -0.830000 0.117100
vt -0.837700 0.113200
vt -0.844900 0.115100
vt -0.850800 0.123100
vt -0.854800 0.136400
vt -0.856100 0.153900
vt -0.854500 0.173700
vt -0.850200 0.193400
vt -0.843700 0.210900
vt -0.835800 0.224300
vt -0.827500 0.232300
vt -0.819800 0.234400
vt -0.813200 0.230600
vt -0.808400 0.221500
vt -0.805700 0.208200
vt -0.805200 0.191900
vt -0.806900 0.174100
vt -0.529100 0.840200
vt -0.552400 0.768500
vt -0.494700 0.523500
vt -0.328600 0.200100
vt -0.068300 -0.081800
vt 0.228400 -0.223700
vt 0.476500 -0.188400
vt 0.594700 -0.016800
vt 0.537900 0.189300
vt 0.317100 0.314400
vt -0.005100 0.280700
vt -0.338900 0.082400
vt -0.600900 -0.213400
vt -0.741000 -0.496200
vt -0.754700 -0.655200
vt -0.677600 -0.620500
vt -0.567100 -0.387100
vt -0.479700 -0.016000
vt 0.300100 0.891700
vt -0.021400 0.665900
vt -0.225000 0.176500
vt -0.231500 -0.396300
vt -0.034500 -0.831600
vt 0.291600 -0.953200
vt 0.617300 -0.705100
vt 0.809700 -0.182100
vt 0.789600 0.404800
vt 0.566400 0.818100
vt 0.233300 0.895100
vt -0.075100 0.612800
vt -0.238700 0.089500
vt -0.197800 -0.470200
vt 0.028800 -0.856800
vt 0.355200 -0.932600
vt 0.662200 -0.675300
vt 0.839600 -0.181700
vt 0.050000 0.237600
vt -0.262900 0.067600
vt -0.532200 -0.202400
vt -0.702800 -0.477500
vt -0.754800 -0.646100
vt -0.708700 -0.623600
vt -0.614900 -0.390300
vt -0.530600 -0.005800
vt -0.493500 0.410500
vt -0.504700 0.725800
vt -0.530500 0.846800
vt -0.520200 0.753800
vt -0.431500 0.502400
vt -0.250900 0.195800
vt -0.002100 -0.056300
vt 0.261000 -0.177800
vt 0.470900 -0.149300
vt 0.568300 -0.010600
vt -0.825600 0.139300
vt -0.826100 0.132500
vt -0.826200 0.129600
vt -0.825800 0.131000
vt -0.824900 0.136800
vt -0.823500 0.146600
vt -0.821700 0.159400
vt -0.819500 0.173800
vt -0.817300 0.188200
vt -0.815300 0.201000
vt -0.813800 0.210800
vt -0.812900 0.216600
vt -0.812900 0.218100
vt -0.813700 0.215400
vt -0.815100 0.208800
vt -0.817000 0.199100
vt -0.819100 0.187200
vt -0.821200 0.174200
vt -0.684800 0.726000
vt -0.662100 0.679200
vt -0.574700 0.497900
vt -0.407000 0.253800
vt -0.174900 0.036100
vt 0.074200 -0.082700
vt 0.274700 -0.074900
vt 0.365700 0.030400
vt 0.314100 0.161500
vt 0.128600 0.236000
vt -0.143000 0.198500
vt -0.431700 0.044700
vt -0.671400 -0.176400
vt -0.819600 -0.383300
vt -0.867700 -0.493300
vt -0.838400 -0.454000
vt -0.772200 -0.261700
vt -0.710300 0.036100
vn -0.6341 -0.3231 0.7025
vn -0.5722 -0.4157 0.7069
vn -0.5899 -0.3907 0.7066
vn -0.4157 -0.5722 0.7069
vn -0.5032 -0.5032 0.7025
vn -0.2186 -0.6727 0.7069
vn -0.2476 -0.6629 0.7066
vn 0.0000 -0.7072 0.7070
vn -0.1113 -0.7028 0.7026
vn 0.2186 -0.6727 0.7069
vn 0.4157 -0.5722 0.7069
vn 0.5722 -0.4157 0.7069
vn 0.5539 -0.4403 0.7066
vn 0.6727 -0.2186 0.7069
vn 0.6341 -0.3231 0.7025
vn 0.7072 -0.0000 0.7070
vn 0.6727 0.2186 0.7069
vn 0.5722 0.4157 0.7069
vn 0.4157 0.5722 0.7069
vn 0.2186 0.6727 0.7069
vn 0.0000 0.7072 0.7070
vn -0.2186 0.6727 0.7069
vn -0.1893 0.6818 0.7066
vn -0.4157 0.5722 0.7069
vn -0.3231 0.6341 0.7025
vn -0.5722 0.4157 0.7069
vn -0.6727 0.2186 0.7069
vn -0.7029 0.1113 0.7026
vn -0.7028 0.1113 0.7026
vn -0.7029 -0.1113 0.7025
vn -0.7029 -0.1113 0.7026
vn -0.6058 -0.0960 0.7898
vn -0.6058 -0.0959 0.7898
vn 0.0382 0.0060 0.9993
vn 0.0379 0.0061 0.9993
vn 0.7478 0.1185 0.6533
vn 0.9874 0.1564 -0.0237
vn 0.7186 0.1138 -0.6861
vn 0.0366 0.0058 -0.9993
vn 0.0367 0.0058 -0.9993
vn -0.6210 -0.0984 -0.7776
vn -0.7648 -0.1212 -0.6327
vn -0.7648 -0.1211 -0.6328
vn -0.4640 -0.2364 0.8537
vn -0.4175 -0.3034 0.8565
vn -0.3034 -0.4176 0.8565
vn -0.3034 -0.4175 0.8565
vn -0.1595 -0.4908 0.8565
vn 0.0000 -0.5162 0.8565
vn -0.0152 -0.5162 0.8563
vn 0.1594 -0.4908 0.8565
vn 0.0814 -0.5144 0.8537
vn 0.1595 -0.4908 0.8565
vn 0.3034 -0.4175 0.8565
vn 0.4176 -0.3034 0.8565
vn 0.4909 -0.1595 0.8565
vn 0.5162 0.0000 0.8564
vn 0.4909 0.1595 0.8565
vn 0.4176 0.3034 0.8565
vn 0.3034 0.4176 0.8565
vn 0.1595 0.4909 0.8565
vn -0.0000 0.5162 0.8564
vn -0.1595 0.4909 0.8565
vn -0.3034 0.4176 0.8565
vn -0.4176 0.3034 0.8565
vn -0.4909 0.1595 0.8565
vn -0.5145 0.0815 0.8536
vn 0.4450 0.2268 0.8663
vn 0.4450 0.2267 0.8664
vn 0.4002 0.2907 0.8691
vn 0.2908 0.4001 0.8691
vn 0.2907 0.4002 0.8691
vn 0.1528 0.4706 0.8690
vn 0.1529 0.4706 0.8690
vn 0.0000 0.4946 0.8691
vn -0.1529 0.4705 0.8690
vn -0.1529 0.4706 0.8690
vn -0.2907 0.4002 0.8691
vn -0.4002 0.2907 0.8691
vn -0.4705 0.1529 0.8691
vn -0.4705 0.1528 0.8691
vn -0.4946 0.0000 0.8691
vn -0.4704 -0.1529 0.8691
vn -0.4705 -0.1529 0.8691
vn -0.4002 -0.2907 0.8691
vn -0.2907 -0.4002 0.8691
vn -0.1529 -0.4705 0.8691
vn -0.1528 -0.4705 0.8691
vn -0.0000 -0.4946 0.8691
vn 0.1529 -0.4705 0.8691
vn 0.2907 -0.4002 0.8691
vn 0.4002 -0.2907 0.8691
vn 0.3921 -0.3017 0.8690
vn 0.4705 -0.1529 0.8691
vn 0.4449 -0.2266 0.8664
vn 0.4705 -0.1528 0.8691
vn 0.4931 -0.0781 0.8665
vn 0.8142 0.4148 0.4063
vn 0.8142 0.4148 0.4062
vn 0.7378 0.5360 0.4104
vn 0.7378 0.5360 0.4103
vn 0.5360 0.7378 0.4103
vn 0.5360 0.7378 0.4104
vn 0.2818 0.8672 0.4105
vn -0.0000 0.9119 0.4104
vn -0.2818 0.8673 0.4105
vn -0.5360 0.7378 0.4104
vn -0.5360 0.7378 0.4103
vn -0.7378 0.5360 0.4103
vn -0.7378 0.5360 0.4104
vn -0.8672 0.2818 0.4105
vn -0.9119 -0.0000 0.4104
vn -0.8673 -0.2818 0.4105
vn -0.7378 -0.5360 0.4104
vn -0.7378 -0.5360 0.4103
vn -0.5360 -0.7378 0.4103
vn -0.5360 -0.7378 0.4104
vn -0.2818 -0.8672 0.4105
vn 0.0000 -0.9119 0.4104
vn 0.2818 -0.8673 0.4105
vn 0.5360 -0.7378 0.4104
vn 0.5360 -0.7378 0.4103
vn 0.7378 -0.5360 0.4103
vn 0.7378 -0.5360 0.4104
vn 0.8672 -0.2818 0.4105
vn 0.9025 -0.1430 0.4062
vn 0.9026 -0.1430 0.4061
vn 0.7953 0.4052 -0.4510
vn 0.7202 0.5233 -0.4555
vn 0.5233 0.7202 -0.4555
vn 0.2751 0.8467 -0.4555
vn 0.2751 0.8467 -0.4554
vn -0.0000 0.8903 -0.4555
vn -0.0000 0.8902 -0.4555
vn -0.2751 0.8467 -0.4554
vn -0.2751 0.8467 -0.4555
vn -0.5233 0.7202 -0.4555
vn -0.7202 0.5233 -0.4555
vn -0.8467 0.2751 -0.4555
vn -0.8467 0.2751 -0.4554
vn -0.8902 -0.0000 -0.4555
vn -0.8467 -0.2751 -0.4554
vn -0.8467 -0.2751 -0.4555
vn -0.7202 -0.5233 -0.4555
vn -0.5233 -0.7202 -0.4555
vn -0.2751 -0.8467 -0.4555
vn -0.2751 -0.8467 -0.4554
vn 0.0000 -0.8903 -0.4555
vn 0.0000 -0.8902 -0.4555
vn 0.2751 -0.8467 -0.4554
vn 0.2751 -0.8467 -0.4555
vn 0.5233 -0.7202 -0.4555
vn 0.7202 -0.5233 -0.4555
vn 0.8467 -0.2751 -0.4555
vn 0.8467 -0.2751 -0.4554
vn 0.8815 -0.1396 -0.4510
vn 0.4135 0.2107 -0.8858
vn 0.3719 0.2702 -0.8881
vn 0.2702 0.3719 -0.8881
vn 0.1420 0.4371 -0.8881
vn 0.0000 0.4596 -0.8881
vn -0.1420 0.4371 -0.8881
vn -0.2702 0.3719 -0.8881
vn -0.3719 0.2702 -0.8881
vn -0.4371 0.1420 -0.8881
vn -0.4596 0.0000 -0.8881
vn -0.4371 -0.1420 -0.8881
vn -0.3719 -0.2702 -0.8881
vn -0.2702 -0.3719 -0.8881
vn -0.1420 -0.4371 -0.8881
vn -0.0000 -0.4596 -0.8881
vn 0.1420 -0.4371 -0.8881
vn 0.2702 -0.3719 -0.8881
vn 0.3719 -0.2702 -0.8881
vn 0.4371 -0.1420 -0.8881
vn 0.4584 -0.0726 -0.8858
vn 0.4584 -0.0727 -0.8858
vn -0.4296 -0.2188 -0.8761
vn -0.3864 -0.2807 -0.8786
vn -0.2807 -0.3864 -0.8786
vn -0.1476 -0.4542 -0.8786
vn -0.1475 -0.4542 -0.8786
vn -0.0000 -0.4775 -0.8786
vn 0.1476 -0.4541 -0.8786
vn 0.1369 -0.4576 -0.8786
vn 0.2807 -0.3864 -0.8786
vn 0.2188 -0.4296 -0.8761
vn 0.3864 -0.2807 -0.8786
vn 0.4542 -0.1476 -0.8786
vn 0.4542 -0.1475 -0.8786
vn 0.4775 -0.0000 -0.8786
vn 0.4541 0.1476 -0.8786
vn 0.4542 0.1476 -0.8786
vn 0.3864 0.2807 -0.8786
vn 0.2807 0.3864 -0.8786
vn 0.1476 0.4542 -0.8786
vn 0.1475 0.4542 -0.8786
vn 0.0000 0.4775 -0.8786
vn -0.1476 0.4541 -0.8786
vn -0.1476 0.4542 -0.8786
vn -0.2807 0.3864 -0.8786
vn -0.3864 0.2807 -0.8786
vn -0.4542 0.1476 -0.8786
vn -0.4542 0.1475 -0.8786
vn -0.4762 0.0755 -0.8761
vn -0.6900 -0.3515 -0.6327
vn -0.6900 -0.3515 -0.6328
vn -0.6233 -0.4528 -0.6375
vn -0.6233 -0.4529 -0.6375
vn -0.4528 -0.6233 -0.6375
vn -0.2381 -0.7328 -0.6374
vn 0.0000 -0.7705 -0.6375
vn 0.2381 -0.7328 -0.6374
vn 0.4528 -0.6233 -0.6375
vn 0.4529 -0.6233 -0.6375
vn 0.6233 -0.4528 -0.6375
vn 0.7328 -0.2381 -0.6374
vn 0.7705 0.0000 -0.6375
vn 0.7328 0.2381 -0.6374
vn 0.6233 0.4528 -0.6375
vn 0.6233 0.4529 -0.6375
vn 0.4528 0.6233 -0.6375
vn 0.2381 0.7328 -0.6374
vn -0.0000 0.7705 -0.6375
vn -0.2381 0.7328 -0.6374
vn -0.4528 0.6233 -0.6375
vn -0.4529 0.6233 -0.6375
vn -0.6233 0.4528 -0.6375
vn -0.7328 0.2381 -0.6374
vn -0.7648 0.1212 -0.6328
vn -0.7648 0.1211 -0.6328
s 1
f 1/1/1 2/2/1 3/3/2
f 2/2/1 4/4/3 3/3/2
f 3/3/2 4/4/3 5/5/4
f 4/4/5 6/6/4 5/5/4
f 5/5/4 6/6/4 7/7/6
f 6/6/4 8/8/7 7/7/6
f 7/7/6 8/8/7 9/9/8
f 8/8/9 10/10/8 9/9/8
f 9/9/8 10/10/8 11/11/10
f 10/10/8 12/12/10 11/11/10
f 11/11/10 12/12/10 13/13/11
f 12/12/10 14/14/11 13/13/11
f 13/13/11 14/14/11 15/15/12
f 14/14/11 16/16/13 15/15/12
f 15/15/12 16/16/13 17/17/14
f 16/16/15 18/18/14 17/17/14
f 17/17/14 18/18/14 19/19/16
f 18/18/14 20/20/16 19/19/16
f 19/19/16 20/20/16 21/21/17
f 20/20/16 22/22/17 21/21/17
f 21/21/17 22/22/17 23/23/18
f 22/22/17 24/24/18 23/23/18
f 23/23/18 24/24/18 25/25/19
f 24/24/18 26/26/19 25/25/19
f 25/25/19 26/26/19 27/27/20
f 26/26/19 28/28/20 27/27/20
f 27/27/20 28/28/20 29/29/21
f 28/28/20 30/30/21 29/29/21
f 29/29/21 30/30/21 31/31/22
f 30/30/21 32/32/23 31/31/22
f 31/31/22 32/32/23 33/33/24
f 32/32/25 34/34/24 33/33/24
f 33/33/24 34/34/24 35/35/26
f 34/34/24 36/36/26 35/35/26
f 35/35/26 36/36/26 37/37/27
f 36/36/26 38/38/27 37/37/27
f 37/37/27 38/38/27 39/39/28
f 38/38/27 40/40/29 39/39/28
f 1/1/30 39/39/31 2/2/32
f 39/39/31 40/40/33 2/2/32
f 2/2/32 40/40/33 41/41/34
f 40/40/33 42/42/35 41/41/34
f 41/41/34 42/42/35 43/43/36
f 42/42/35 44/44/36 43/43/36
f 43/43/36 44/44/36 45/45/37
f 44/44/36 46/46/37 45/45/37
f 45/45/37 46/46/37 47/47/38
f 46/46/37 48/48/38 47/47/38
f 47/47/38 48/48/38 49/49/39
f 48/48/38 50/50/40 49/49/39
f 49/49/39 50/50/40 51/51/41
f 50/50/40 52/52/41 51/51/41
f 51/51/41 52/52/41 1/1/42
f 52/52/41 39/39/43 1/1/42
f 2/2/44 41/41/44 4/4/45
f 41/41/44 53/53/45 4/4/45
f 4/4/45 53/53/45 6/6/46
f 53/53/45 54/54/47 6/6/46
f 6/6/46 54/54/47 8/8/48
f 54/54/47 55/55/48 8/8/48
f 8/8/48 55/55/48 10/10/49
f 55/55/48 56/56/50 10/10/49
f 10/10/49 56/56/50 12/12/51
f 56/56/52 57/57/53 12/12/51
f 12/12/51 57/57/53 14/14/54
f 57/57/53 58/58/54 14/14/54
f 14/14/54 58/58/54 16/16/55
f 58/58/54 59/59/55 16/16/55
f 16/16/55 59/59/55 18/18/56
f 59/59/55 60/60/56 18/18/56
f 18/18/56 60/60/56 20/20/57
f 60/60/56 61/61/57 20/20/57
f 20/20/57 61/61/57 22/22/58
f 61/61/57 62/62/58 22/22/58
f 22/22/58 62/62/58 24/24/59
f 62/62/58 63/63/59 24/24/59
f 24/24/59 63/63/59 26/26/60
f 63/63/59 64/64/60 26/26/60
f 26/26/60 64/64/60 28/28/61
f 64/64/60 65/65/61 28/28/61
f 28/28/61 65/65/61 30/30/62
f 65/65/61 66/66/62 30/30/62
f 30/30/62 66/66/62 32/32/63
f 66/66/62 67/67/63 32/32/63
f 32/32/63 67/67/63 34/34/64
f 67/67/63 68/68/64 34/34/64
f 34/34/64 68/68/64 36/36/65
f 68/68/64 69/69/65 36/36/65
f 36/36/65 69/69/65 38/38/66
f 69/69/65 70/70/66 38/38/66
f 38/38/66 70/70/66 40/40/67
f 70/70/66 42/42/67 40/40/67
f 41/41/68 43/43/69 53/53/70
f 43/43/69 71/71/70 53/53/70
f 53/53/70 71/71/70 54/54/71
f 71/71/70 72/72/72 54/54/71
f 54/54/71 72/72/72 55/55/73
f 72/72/72 73/73/74 55/55/73
f 55/55/73 73/73/74 56/56/75
f 73/73/74 74/74/75 56/56/75
f 56/56/75 74/74/75 57/57/76
f 74/74/75 75/75/77 57/57/76
f 57/57/76 75/75/77 58/58/78
f 75/75/77 76/76/78 58/58/78
f 58/58/78 76/76/78 59/59/79
f 76/76/78 77/77/79 59/59/79
f 59/59/79 77/77/79 60/60/80
f 77/77/79 78/78/81 60/60/80
f 60/60/80 78/78/81 61/61/82
f 78/78/81 79/79/82 61/61/82
f 61/61/82 79/79/82 62/62/83
f 79/79/82 80/80/84 62/62/83
f 62/62/83 80/80/84 63/63/85
f 80/80/84 81/81/85 63/63/85
f 63/63/85 81/81/85 64/64/86
f 81/81/85 82/82/86 64/64/86
f 64/64/86 82/82/86 65/65/87
f 82/82/86 83/83/88 65/65/87
f 65/65/87 83/83/88 66/66/89
f 83/83/88 84/84/89 66/66/89
f 66/66/89 84/84/89 67/67/90
f 84/84/89 85/85/90 67/67/90
f 67/67/90 85/85/90 68/68/91
f 85/85/90 86/86/91 68/68/91
f 68/68/91 86/86/91 69/69/92
f 86/86/91 87/87/93 69/69/92
f 69/69/92 87/87/93 70/70/94
f 87/87/95 88/88/96 70/70/94
f 70/70/94 88/88/96 42/42/97
f 88/88/96 44/44/97 42/42/97
f 43/43/98 45/45/99 71/71/100
f 45/45/99 89/89/101 71/71/100
f 71/71/100 89/89/101 72/72/102
f 89/89/101 90/90/103 72/72/102
f 72/72/102 90/90/103 73/73/104
f 90/90/103 91/91/104 73/73/104
f 73/73/104 91/91/104 74/74/105
f 91/91/104 92/92/105 74/74/105
f 74/74/105 92/92/105 75/75/106
f 92/92/105 93/93/106 75/75/106
f 75/75/106 93/93/106 76/76/107
f 93/93/106 94/94/108 76/76/107
f 76/76/107 94/94/108 77/77/109
f 94/94/108 95/95/110 77/77/109
f 77/77/109 95/95/110 78/78/111
f 95/95/110 96/96/111 78/78/111
f 78/78/111 96/96/111 79/79/112
f 96/96/111 97/97/112 79/79/112
f 79/79/112 97/97/112 80/80/113
f 97/97/112 98/98/113 80/80/113
f 80/80/113 98/98/113 81/81/114
f 98/98/113 99/99/115 81/81/114
f 81/81/114 99/99/115 82/82/116
f 99/99/115 100/100/117 82/82/116
f 82/82/116 100/100/117 83/83/118
f 100/100/117 101/101/118 83/83/118
f 83/83/118 101/101/118 84/84/119
f 101/101/118 102/102/119 84/84/119
f 84/84/119 102/102/119 85/85/120
f 102/102/119 103/103/120 85/85/120
f 85/85/120 103/103/120 86/86/121
f 103/103/120 104/104/122 86/86/121
f 86/86/121 104/104/122 87/87/123
f 104/104/122 105/105/124 87/87/123
f 87/87/123 105/105/124 88/88/125
f 105/105/124 106/106/125 88/88/125
f 88/88/125 106/106/125 44/44/126
f 106/106/125 46/46/127 44/44/126
f 45/45/128 47/47/128 89/89/129
f 47/47/128 107/107/129 89/89/129
f 89/89/129 107/107/129 90/90/130
f 107/107/129 108/108/130 90/90/130
f 90/90/130 108/108/130 91/91/131
f 108/108/130 109/109/132 91/91/131
f 91/91/131 109/109/132 92/92/133
f 109/109/132 110/110/134 92/92/133
f 92/92/133 110/110/134 93/93/135
f 110/110/134 111/111/136 93/93/135
f 93/93/135 111/111/136 94/94/137
f 111/111/136 112/112/137 94/94/137
f 94/94/137 112/112/137 95/95/138
f 112/112/137 113/113/138 95/95/138
f 95/95/138 113/113/138 96/96/139
f 113/113/138 114/114/140 96/96/139
f 96/96/139 114/114/140 97/97/141
f 114/114/140 115/115/141 97/97/141
f 97/97/141 115/115/141 98/98/142
f 115/115/141 116/116/143 98/98/142
f 98/98/142 116/116/143 99/99/144
f 116/116/143 117/117/144 99/99/144
f 99/99/144 117/117/144 100/100/145
f 117/117/144 118/118/145 100/100/145
f 100/100/145 118/118/145 101/101/146
f 118/118/145 119/119/147 101/101/146
f 101/101/146 119/119/147 102/102/148
f 119/119/147 120/120/149 102/102/148
f 102/102/148 120/120/149 103/103/150
f 120/120/149 121/121/151 103/103/150
f 103/103/150 121/121/151 104/104/152
f 121/121/151 122/122/152 104/104/152
f 104/104/152 122/122/152 105/105/153
f 122/122/152 123/123/153 105/105/153
f 105/105/153 123/123/153 106/106/154
f 123/123/153 124/124/155 106/106/154
f 106/106/154 124/124/155 46/46/156
f 124/124/155 48/48/156 46/46/156
f 47/47/157 49/49/157 107/107/158
f 49/49/157 125/125/158 107/107/158
f 107/107/158 125/125/158 108/108/159
f 125/125/158 126/126/159 108/108/159
f 108/108/159 126/126/159 109/109/160
f 126/126/159 127/127/160 109/109/160
f 109/109/160 127/127/160 110/110/161
f 127/127/160 128/128/161 110/110/161
f 110/110/161 128/128/161 111/111/162
f 128/128/161 129/129/162 111/111/162
f 111/111/162 129/129/162 112/112/163
f 129/129/162 130/130/163 112/112/163
f 112/112/163 130/130/163 113/113/164
f 130/130/163 131/131/164 113/113/164
f 113/113/164 131/131/164 114/114/165
f 131/131/164 132/132/165 114/114/165
f 114/114/165 132/132/165 115/115/166
f 132/132/165 133/133/166 115/115/166
f 115/115/166 133/133/166 116/116/167
f 133/133/166 134/134/167 116/116/167
f 116/116/167 134/134/167 117/117/168
f 134/134/167 135/135/168 117/117/168
f 117/117/168 135/135/168 118/118/169
f 135/135/168 136/136/169 118/118/169
f 118/118/169 136/136/169 119/119/170
f 136/136/169 137/137/170 119/119/170
f 119/119/170 137/137/170 120/120/171
f 137/137/170 138/138/171 120/120/171
f 120/120/171 138/138/171 121/121/172
f 138/138/171 139/139/172 121/121/172
f 121/121/172 139/139/172 122/122/173
f 139/139/172 140/140/173 122/122/173
f 122/122/173 140/140/173 123/123/174
f 140/140/173 141/141/174 123/123/174
f 123/123/174 141/141/174 124/124/175
f 141/141/174 142/142/175 124/124/175
f 124/124/175 142/142/175 48/48/176
f 142/142/175 50/50/177 48/48/176
f 49/49/178 51/51/178 125/125/179
f 51/51/178 143/143/179 125/125/179
f 125/125/179 143/143/179 126/126/180
f 143/143/179 144/144/180 126/126/180
f 126/126/180 144/144/180 127/127/181
f 144/144/180 145/145/182 127/127/181
f 127/127/181 145/145/182 128/128/183
f 145/145/182 146/146/183 128/128/183
f 128/128/183 146/146/183 129/129/184
f 146/146/183 147/147/185 129/129/184
f 129/129/184 147/147/185 130/130/186
f 147/147/187 148/148/186 130/130/186
f 130/130/186 148/148/186 131/131/188
f 148/148/186 149/149/188 131/131/188
f 131/131/188 149/149/188 132/132/189
f 149/149/188 150/150/190 132/132/189
f 132/132/189 150/150/190 133/133/191
f 150/150/190 151/151/191 133/133/191
f 133/133/191 151/151/191 134/134/192
f 151/151/191 152/152/193 134/134/192
f 134/134/192 152/152/193 135/135/194
f 152/152/193 153/153/194 135/135/194
f 135/135/194 153/153/194 136/136/195
f 153/153/194 154/154/195 136/136/195
f 136/136/195 154/154/195 137/137/196
f 154/154/195 155/155/197 137/137/196
f 137/137/196 155/155/197 138/138/198
f 155/155/197 156/156/198 138/138/198
f 138/138/198 156/156/198 139/139/199
f 156/156/198 157/157/200 139/139/199
f 139/139/199 157/157/200 140/140/201
f 157/157/200 158/158/201 140/140/201
f 140/140/201 158/158/201 141/141/202
f 158/158/201 159/159/202 141/141/202
f 141/141/202 159/159/202 142/142/203
f 159/159/202 160/160/204 142/142/203
f 142/142/203 160/160/204 50/50/205
f 160/160/204 52/52/205 50/50/205
f 51/51/206 1/1/207 143/143/208
f 1/1/207 3/3/209 143/143/208
f 143/143/208 3/3/209 144/144/210
f 3/3/209 5/5/210 144/144/210
f 144/144/210 5/5/210 145/145/211
f 5/5/210 7/7/211 145/145/211
f 145/145/211 7/7/211 146/146/212
f 7/7/211 9/9/212 146/146/212
f 146/146/212 9/9/212 147/147/213
f 9/9/212 11/11/213 147/147/213
f 147/147/213 11/11/213 148/148/214
f 11/11/213 13/13/215 148/148/214
f 148/148/214 13/13/215 149/149/216
f 13/13/215 15/15/216 149/149/216
f 149/149/216 15/15/216 150/150/217
f 15/15/216 17/17/217 150/150/217
f 150/150/217 17/17/217 151/151/218
f 17/17/217 19/19/218 151/151/218
f 151/151/218 19/19/218 152/152/219
f 19/19/218 21/21/219 152/152/219
f 152/152/219 21/21/219 153/153/220
f 21/21/219 23/23/221 153/153/220
f 153/153/220 23/23/221 154/154/222
f 23/23/221 25/25/222 154/154/222
f 154/154/222 25/25/222 155/155/223
f 25/25/222 27/27/223 155/155/223
f 155/155/223 27/27/223 156/156/224
f 27/27/223 29/29/224 156/156/224
f 156/156/224 29/29/224 157/157/225
f 29/29/224 31/31/225 157/157/225
f 157/157/225 31/31/225 158/158/226
f 31/31/225 33/33/227 158/158/226
f 158/158/226 33/33/227 159/159/228
f 33/33/227 35/35/228 159/159/228
f 159/159/228 35/35/228 160/160/229
f 35/35/228 37/37/229 160/160/229
f 160/160/229 37/37/229 52/52/230
f 37/37/229 39/39/231 52/52/230
