# Blender v2.93.5 OBJ File: 'SmallBush.blend'
# www.blender.org
mtllib SmallBush.mtl
o Icosphere.007_Icosphere.009
v -0.505146 0.345530 0.649071
v -0.520224 0.380954 0.699632
v -0.593320 0.380707 0.600705
v -0.586202 0.375952 0.600778
v -0.448568 0.377738 0.675741
v -0.569134 0.486264 0.659039
v -0.591050 0.380536 0.597524
v -0.428937 0.432043 0.679313
v -0.451906 0.483182 0.696157
v -0.591710 0.387812 0.596207
v -0.569674 0.484465 0.595516
v -0.433444 0.481790 0.670300
v -0.516057 0.523051 0.619729
v -0.466598 0.513131 0.648058
v 0.410107 0.806267 0.803171
v 0.437114 0.825838 0.821400
v 0.376562 0.828556 0.841588
v 0.436606 0.824143 0.761524
v 0.396776 0.915653 0.850984
v 0.347048 0.841240 0.853512
v 0.375285 0.831182 0.842486
v 0.436788 0.824950 0.761019
v 0.438765 0.833938 0.724725
v 0.456457 0.911152 0.767395
v 0.298797 0.918228 0.819960
v 0.329882 0.851298 0.845758
v 0.426792 0.843280 0.710797
v 0.395364 0.910946 0.684713
v 0.370972 0.968252 0.766505
v 0.290501 0.882020 0.799950
v 0.371712 0.875555 0.685916
v 0.297925 0.915320 0.717200
v 0.294483 0.900133 0.726813
v 0.305134 0.899270 0.711914
v 0.146124 1.140651 -0.344547
v 0.206459 1.139065 -0.325443
v 0.188193 1.126405 -0.311915
v 0.117373 1.154948 -0.356918
v 0.165580 1.227082 -0.359370
v 0.207089 1.141167 -0.251199
v 0.091993 1.178349 -0.344376
v 0.068142 1.231455 -0.326885
v 0.226673 1.227288 -0.276689
v 0.209229 1.150346 -0.227982
v 0.063681 1.211783 -0.314431
v 0.141187 1.284388 -0.277578
v 0.166992 1.231789 -0.193100
v 0.197180 1.164573 -0.215240
v 0.068711 1.233352 -0.259874
v 0.077809 1.240460 -0.230638
v 0.150708 1.207422 -0.192272
v 0.098066 1.233600 -0.214926
v 0.747740 0.616828 0.405385
v 0.739377 0.636475 0.433426
v 0.730912 0.636446 0.421970
v 0.783211 0.593259 0.364759
v 0.836815 0.632102 0.400941
v 0.724087 0.669396 0.420737
v 0.816333 0.615601 0.312705
v 0.835942 0.629193 0.298181
v 0.796475 0.721916 0.430523
v 0.721567 0.723885 0.406804
v 0.826087 0.629452 0.295060
v 0.856157 0.717416 0.346936
v 0.770672 0.774515 0.346046
v 0.744396 0.756302 0.365508
v 0.825009 0.652733 0.289107
v 0.811644 0.717265 0.286693
v 0.760953 0.767472 0.339486
v 0.778685 0.755689 0.319177
v -0.592155 1.083100 0.021220
v -0.596186 1.092571 0.034738
v -0.669283 1.092324 -0.064189
v -0.625785 1.063269 -0.063736
v -0.577881 1.091749 0.028635
v -0.645097 1.197881 -0.005856
v -0.597877 1.086939 -0.164200
v -0.595656 1.082412 -0.156929
v -0.520261 1.127007 0.016363
v -0.500778 1.134482 0.011397
v -0.527868 1.194799 0.031265
v -0.646140 1.194400 -0.128806
v -0.588690 1.086698 -0.161290
v -0.462493 1.162811 -0.051906
v -0.456461 1.189414 -0.068747
v -0.492011 1.144411 -0.004166
v -0.558742 1.257732 -0.069811
v -0.529558 1.189167 -0.167674
v -0.505492 1.137352 -0.147700
v -0.462499 1.163062 -0.083309
v -0.949415 0.870730 -0.670570
v -0.976715 0.929510 -0.693227
v -0.996656 0.842480 -0.741322
v -0.893577 0.904727 -0.661448
v -0.878736 0.926934 -0.662203
v -0.977587 0.926600 -0.795986
v -0.996657 0.842491 -0.742744
v -0.874112 0.916638 -0.665594
v -0.904540 0.979533 -0.746680
v -0.952245 0.870174 -0.814571
v -0.859875 0.925512 -0.688619
v -0.841316 0.937303 -0.746021
v -0.880149 0.922228 -0.828473
v -0.889123 0.908798 -0.828015
v -0.866806 0.922272 -0.810415
v -0.877265 0.916018 -0.826078
v 0.549227 0.575276 -0.637437
v 0.558721 0.574560 -0.650735
v 0.570434 0.550683 -0.612387
v 0.540410 0.615332 -0.637305
v 0.656699 0.571985 -0.619711
v 0.597667 0.531070 -0.575991
v 0.536124 0.663579 -0.627068
v 0.615821 0.660001 -0.653638
v 0.657573 0.574894 -0.516953
v 0.613412 0.542893 -0.546760
v 0.547267 0.685306 -0.601655
v 0.591429 0.717307 -0.571846
v 0.676914 0.660208 -0.570956
v 0.630448 0.576111 -0.507909
v 0.571337 0.703382 -0.556966
v 0.623896 0.649874 -0.492255
v 0.620688 0.664448 -0.492208
v 0.612971 0.673396 -0.501322
v -0.190011 -0.341128 -0.218617
v -0.522851 -0.079111 0.695325
v -1.101503 -0.119643 -0.577275
v -0.697326 -0.158822 -1.117838
v 0.738921 -0.131887 0.655773
v -0.957825 0.857430 0.334322
v 0.615740 -0.197221 -0.804712
v -1.070445 0.800087 -1.064990
v 0.256589 0.843209 0.999709
v 0.180760 0.739320 -1.165721
v 0.953855 0.772557 0.076128
v -0.129616 1.367679 -0.267505
vt 0.055180 0.886954
vt 0.056065 0.887902
vt 0.054730 0.887699
vt 0.054257 0.886595
vt 0.056145 0.887854
vt 0.056397 0.886559
vt 0.056158 0.887894
vt 0.054521 0.885651
vt 0.056238 0.887846
vt 0.057199 0.886898
vt 0.055403 0.885570
vt 0.055256 0.885117
vt 0.056934 0.885726
vt 0.056165 0.885117
vt 0.058490 0.891092
vt 0.058773 0.890491
vt 0.059741 0.891006
vt 0.057825 0.890103
vt 0.059498 0.889873
vt 0.060472 0.891092
vt 0.059787 0.891052
vt 0.057804 0.890104
vt 0.057209 0.889572
vt 0.058783 0.889538
vt 0.060864 0.890768
vt 0.057204 0.889081
vt 0.059406 0.889138
vt 0.060304 0.889335
vt 0.061020 0.889036
vt 0.058444 0.887829
vt 0.058678 0.888578
vt 0.059816 0.888256
vt 0.060032 0.888175
vt 0.059738 0.888038
vt 0.056110 0.895292
vt 0.055761 0.894325
vt 0.056170 0.894237
vt 0.054932 0.894910
vt 0.055703 0.895811
vt 0.055650 0.893076
vt 0.055072 0.896133
vt 0.054781 0.894097
vt 0.055230 0.892818
vt 0.054073 0.896003
vt 0.054210 0.895650
vt 0.054151 0.894623
vt 0.054796 0.892743
vt 0.053122 0.895392
vt 0.052882 0.894823
vt 0.053894 0.893668
vt 0.053593 0.893299
vt 0.052882 0.894309
vt 0.053341 0.890617
vt 0.053429 0.890094
vt 0.053625 0.890169
vt 0.052255 0.890175
vt 0.052400 0.891092
vt 0.053745 0.889593
vt 0.051318 0.890783
vt 0.052596 0.889252
vt 0.053406 0.888592
vt 0.051054 0.890508
vt 0.051166 0.890434
vt 0.051623 0.889447
vt 0.052466 0.888011
vt 0.050915 0.890166
vt 0.050582 0.889123
vt 0.051903 0.888221
vt 0.051868 0.888011
vt 0.051360 0.888205
vt 0.056509 0.894384
vt 0.057908 0.894841
vt 0.057639 0.896133
vt 0.056422 0.894001
vt 0.056632 0.894162
vt 0.057701 0.893807
vt 0.059504 0.894894
vt 0.056175 0.892693
vt 0.057188 0.893023
vt 0.058463 0.893918
vt 0.059500 0.894750
vt 0.059668 0.894724
vt 0.056175 0.892277
vt 0.056575 0.891915
vt 0.058156 0.893193
vt 0.059297 0.893142
vt 0.061020 0.892462
vt 0.058839 0.891338
vt 0.058278 0.891671
vt 0.057834 0.891096
vt 0.051393 0.888007
vt 0.051989 0.887064
vt 0.053254 0.888007
vt 0.050876 0.886977
vt 0.053289 0.887990
vt 0.050748 0.886620
vt 0.050910 0.886604
vt 0.051945 0.886092
vt 0.052793 0.886490
vt 0.053745 0.886256
vt 0.050781 0.886152
vt 0.051411 0.885227
vt 0.052695 0.885447
vt 0.052886 0.885479
vt 0.052458 0.885321
vt 0.052723 0.885367
vt 0.053840 0.889902
vt 0.054080 0.889830
vt 0.054171 0.890570
vt 0.053750 0.889162
vt 0.055200 0.889952
vt 0.054996 0.891063
vt 0.054950 0.889114
vt 0.054170 0.888297
vt 0.055663 0.891092
vt 0.054711 0.887907
vt 0.055769 0.889325
vt 0.056174 0.890234
vt 0.056537 0.890518
vt 0.055756 0.887907
vt 0.055608 0.888344
vt 0.057199 0.889195
vt 0.057170 0.888906
vt 0.057036 0.888650
vt 0.946491 0.721101
vt 0.944882 0.720233
vt 0.947388 0.721181
vt 0.950480 0.721605
vt 0.943910 0.721130
vt 0.945203 0.720784
vt 0.946575 0.721382
vt 0.947786 0.721160
vt 0.940145 0.720072
vt 0.950334 0.719506
vt 0.950336 0.719498
vt 0.950358 0.719541
vt 0.950346 0.720072
vt 0.947435 0.720826
vt 0.942617 0.720896
vt 0.942548 0.720963
vt 0.941181 0.720392
vt 0.943734 0.720474
vt 0.942825 0.721063
vt 0.942840 0.721076
vt 0.946809 0.720965
vt 0.946777 0.720977
vt 0.945592 0.720753
vt 0.945597 0.720740
vt 0.946823 0.721046
vt 0.945446 0.720765
vt 0.945507 0.720675
vt 0.945806 0.721128
vt 0.945761 0.721119
vt 0.945933 0.721205
vt 0.945949 0.721201
vt 0.944897 0.720537
vt 0.940956 0.720198
vt 0.940997 0.720335
vt 0.945135 0.720862
vt 0.945108 0.720839
vt 0.945050 0.720862
vt 0.945071 0.720887
vt 0.950423 0.719588
vt 0.950338 0.719513
vt 0.950480 0.719390
vt 0.950400 0.719404
vt 0.950212 0.719390
vt 0.950278 0.719392
vt 0.950328 0.719421
vt 0.950346 0.719476
vt 0.942786 0.721058
vt 0.942706 0.720926
vt 0.942656 0.720880
vt 0.940984 0.720273
vt 0.940906 0.720281
vt 0.942592 0.721023
vt 0.942640 0.721015
vt 0.941426 0.720657
vt 0.941310 0.720564
vt 0.942817 0.721056
vt 0.942696 0.721021
vt 0.942783 0.721026
vt 0.947045 0.721023
vt 0.946998 0.721021
vt 0.946977 0.721024
vt 0.945303 0.720947
vt 0.945354 0.720841
vt 0.945377 0.720828
vt 0.946949 0.720959
vt 0.945495 0.720732
vt 0.945645 0.720723
vt 0.946856 0.720921
vt 0.945582 0.720540
vt 0.945540 0.720650
vt 0.946988 0.721000
vt 0.946959 0.721051
vt 0.946773 0.720986
vt 0.945913 0.721141
vt 0.946019 0.721331
vt 0.945966 0.721131
vt 0.945784 0.721069
vt 0.945696 0.721132
vt 0.945974 0.721175
vt 0.945948 0.721205
vt 0.945914 0.721210
vt 0.940835 0.720213
vt 0.940816 0.720198
vt 0.941392 0.720602
vt 0.941351 0.720509
vt 0.940846 0.720257
vt 0.941209 0.720472
vt 0.945382 0.721020
vt 0.945285 0.720963
vt 0.945209 0.720923
vt 0.944951 0.720771
vt 0.945055 0.720861
vt 0.945213 0.720980
vt 0.945036 0.720796
vt 0.945026 0.720838
vn -0.5158 -0.7663 0.3831
vn 0.1643 -0.7842 0.5984
vn -0.7959 -0.1428 0.5884
vn -0.5220 -0.7864 -0.3302
vn 0.3046 -0.1717 0.9369
vn -0.9750 0.2223 0.0020
vn -0.2888 0.2246 0.9307
vn -0.8058 -0.1755 -0.5656
vn 0.8057 0.1755 0.5658
vn -0.5786 0.8154 -0.0182
vn -0.1545 0.8168 0.5558
vn 0.5219 0.7865 0.3303
vn 0.5786 -0.8154 0.0182
vn 0.3046 -0.1718 0.9369
vn 0.9750 -0.2223 -0.0019
vn 0.7959 0.1428 -0.5884
vn 0.2888 -0.2246 -0.9307
vn 0.5158 0.7663 -0.3831
vn -0.3046 0.1718 -0.9369
vn -0.1643 0.7842 -0.5984
vn -0.8057 -0.1755 -0.5658
vn 0.1545 -0.8168 -0.5558
vn -0.3046 0.1717 -0.9369
vn 0.7958 0.1428 -0.5884
vn 0.9750 -0.2223 -0.0020
vn 0.8056 0.1755 0.5658
vn 0.3047 -0.1717 0.9368
vn -0.7958 -0.1428 0.5884
vn 0.1546 -0.8168 -0.5558
vn 0.5158 0.7663 -0.3830
vn -0.5219 -0.7865 -0.3303
vn -0.9750 0.2221 0.0024
vn 0.8057 0.1754 0.5658
vn 0.2888 -0.2247 -0.9306
vn 0.7959 0.1427 -0.5884
vn 0.3047 -0.1718 0.9368
vn -0.2932 -0.9420 0.1633
vn -0.2046 -0.9754 -0.0823
vn -0.0320 -0.9638 0.2647
vn -0.8782 -0.2509 0.4073
vn 0.0216 -0.9774 -0.2103
vn -0.7800 -0.2724 -0.5634
vn 0.0160 -0.3255 0.9454
vn 0.1950 -0.9804 0.0274
vn -0.9943 0.0744 0.0770
vn -0.4765 0.1146 0.8717
vn -0.4763 0.1148 0.8718
vn 0.2166 -0.2619 -0.9405
vn -0.0791 0.0242 -0.9966
vn 0.7910 0.1856 0.5830
vn 0.7910 0.1857 0.5830
vn 0.9598 -0.2722 -0.0688
vn -0.5208 0.8536 0.0069
vn -0.5209 0.8536 0.0069
vn -0.2256 0.8740 0.4305
vn 0.8321 0.1849 -0.5229
vn -0.0065 0.8183 -0.5747
vn 0.4076 0.8809 0.2404
vn 0.5340 0.7683 -0.3530
vn -0.9750 0.2222 0.0021
vn 0.3046 -0.1722 0.9368
vn 0.3047 -0.1718 0.9369
vn 0.9752 -0.2213 -0.0020
vn -0.9750 0.2222 0.0020
vn 0.1643 -0.7841 0.5984
vn 0.2889 -0.2247 -0.9306
vn -0.3047 0.1717 -0.9369
vn -0.3047 0.1718 -0.9368
vn -0.4764 0.1148 0.8717
vn -0.4763 0.1148 0.8717
vn 0.7910 0.1853 0.5830
vn 0.7910 0.1859 0.5829
vn -0.5209 0.8536 0.0070
vn -0.5210 0.8535 0.0071
vn 0.8321 0.1849 -0.5230
vn 0.8321 0.1848 -0.5230
vn 0.4077 0.8809 0.2404
vn 0.5340 0.7683 -0.3529
usemtl Material.001
s off
f 2/1/1 4/2/1 1/3/1
f 5/4/2 2/1/2 1/3/2
f 3/5/3 2/1/3 6/6/3
f 4/2/4 3/5/4 7/7/4
f 8/8/5 2/1/5 5/4/5
f 10/9/6 6/6/6 11/10/6
f 2/1/7 9/11/7 6/6/7
f 7/7/8 3/5/8 10/9/8
f 12/12/9 9/11/9 8/8/9
f 11/10/10 6/6/10 13/13/10
f 6/6/11 14/14/11 13/13/11
f 14/14/12 9/11/12 12/12/12
f 15/15/2 16/16/2 17/17/2
f 18/18/13 16/16/13 15/15/13
f 19/19/14 20/20/14 21/21/14
f 22/22/15 23/23/15 24/24/15
f 16/16/9 24/24/9 19/19/9
f 19/19/7 26/25/7 20/20/7
f 27/26/16 24/24/16 23/23/16
f 19/19/12 24/24/12 29/27/12
f 25/28/11 19/19/11 29/27/11
f 26/25/3 25/28/3 30/29/3
f 31/30/17 28/31/17 27/26/17
f 24/24/18 28/31/18 29/27/18
f 32/32/10 25/28/10 29/27/10
f 25/28/6 33/33/6 30/29/6
f 34/34/19 28/31/19 31/30/19
f 28/31/20 32/32/20 29/27/20
f 33/33/21 32/32/21 34/34/21
f 35/35/22 36/36/22 37/37/22
f 39/38/17 35/35/17 38/39/17
f 37/37/13 36/36/13 40/40/13
f 41/41/23 39/38/23 38/39/23
f 36/36/24 39/38/24 43/42/24
f 40/40/25 43/42/25 44/43/25
f 45/44/21 42/45/21 41/41/21
f 39/38/20 42/45/20 46/46/20
f 43/42/18 39/38/18 46/46/18
f 43/42/26 48/47/26 44/43/26
f 49/48/6 42/45/6 45/44/6
f 46/46/10 49/48/10 50/49/10
f 47/50/12 43/42/12 46/46/12
f 48/47/27 47/50/27 51/51/27
f 52/52/11 46/46/11 50/49/11
f 51/51/7 47/50/7 52/52/7
f 53/53/1 54/54/1 55/55/1
f 57/56/2 53/53/2 56/57/2
f 55/55/28 54/54/28 58/58/28
f 59/59/13 57/56/13 56/57/13
f 54/54/14 57/56/14 61/60/14
f 58/58/7 61/60/7 62/61/7
f 63/62/29 60/63/29 59/59/29
f 57/56/25 60/63/25 64/64/25
f 57/56/9 64/64/9 61/60/9
f 61/60/11 66/65/11 62/61/11
f 67/66/17 60/63/17 63/62/17
f 64/64/16 67/66/16 68/67/16
f 61/60/12 64/64/12 65/68/12
f 66/65/10 65/68/10 69/69/10
f 70/70/30 64/64/30 68/67/30
f 69/69/20 65/68/20 70/70/20
f 71/71/1 73/72/1 74/73/1
f 75/74/2 72/75/2 71/71/2
f 73/72/28 72/75/28 76/76/28
f 73/72/31 78/77/31 74/73/31
f 75/74/14 79/78/14 81/79/14
f 73/72/6 76/76/6 82/80/6
f 72/75/7 81/79/7 76/76/7
f 77/81/21 73/72/21 82/80/21
f 78/77/29 77/81/29 83/82/29
f 81/79/9 80/83/9 86/84/9
f 82/80/10 76/76/10 87/85/10
f 76/76/11 81/79/11 87/85/11
f 77/81/19 82/80/19 88/86/19
f 83/82/17 88/86/17 89/87/17
f 90/88/25 85/89/25 84/90/25
f 81/79/12 85/89/12 87/85/12
f 88/86/20 82/80/20 87/85/20
f 88/86/16 90/88/16 89/87/16
f 85/89/18 88/86/18 87/85/18
f 91/91/28 92/92/28 93/93/28
f 94/94/7 92/92/7 91/91/7
f 92/92/32 97/95/32 93/93/32
f 98/96/5 95/97/5 94/94/5
f 92/92/11 95/97/11 99/98/11
f 96/99/10 92/92/10 99/98/10
f 97/95/21 96/99/21 100/100/21
f 101/101/33 95/97/33 98/96/33
f 99/98/12 101/101/12 102/102/12
f 103/103/20 96/99/20 99/98/20
f 96/99/19 104/104/19 100/100/19
f 105/105/30 99/98/30 102/102/30
f 104/104/34 103/103/34 106/106/34
f 106/106/35 103/103/35 105/105/35
f 107/107/31 108/108/31 109/109/31
f 110/110/21 108/108/21 107/107/21
f 109/109/22 111/111/22 112/112/22
f 114/113/23 110/110/23 113/114/23
f 111/111/17 108/108/17 114/113/17
f 111/111/13 116/115/13 112/112/13
f 117/116/20 114/113/20 113/114/20
f 111/111/16 114/113/16 119/117/16
f 115/118/25 111/111/25 119/117/25
f 116/115/2 115/118/2 120/119/2
f 121/120/10 118/121/10 117/116/10
f 119/117/18 114/113/18 118/121/18
f 122/122/9 119/117/9 123/123/9
f 120/119/36 115/118/36 122/122/36
f 124/124/11 118/121/11 121/120/11
f 119/117/12 124/124/12 123/123/12
f 125/125/37 126/126/37 127/127/37
f 125/125/38 127/127/38 128/128/38
f 126/126/39 125/125/39 129/129/39
f 127/127/40 126/126/40 130/130/40
f 125/125/41 128/128/41 131/131/41
f 128/128/42 127/127/42 132/132/42
f 126/126/43 129/129/43 133/133/43
f 125/125/44 131/131/44 129/129/44
f 127/127/45 130/130/45 132/132/45
f 7/134/46 10/135/46 130/130/46
f 5/136/47 126/137/47 133/133/47
f 131/131/48 128/128/48 134/138/48
f 128/128/49 132/132/49 134/138/49
f 58/139/50 62/140/50 15/141/50
f 135/142/51 67/143/51 63/144/51
f 129/129/52 131/131/52 135/142/52
f 101/145/53 98/146/53 83/147/53
f 130/130/54 74/148/54 91/149/54
f 80/150/55 79/151/55 133/133/55
f 122/152/56 123/153/56 135/142/56
f 134/138/56 110/154/56 107/155/56
f 134/138/57 132/132/57 136/156/57
f 33/157/58 34/158/58 136/156/58
f 40/159/59 44/160/59 135/142/59
f 136/156/59 49/161/59 45/162/59
f 2/1/1 3/5/1 4/2/1
f 8/8/36 9/11/36 2/1/36
f 10/9/60 3/5/60 6/6/60
f 6/6/11 9/11/11 14/14/11
f 21/21/61 17/17/61 16/16/61
f 16/16/62 19/19/62 21/21/62
f 24/24/25 16/16/25 22/22/25
f 16/16/63 18/18/63 22/22/63
f 19/19/7 25/28/7 26/25/7
f 27/26/16 28/31/16 24/24/16
f 25/28/64 32/32/64 33/33/64
f 34/34/23 32/32/23 28/31/23
f 39/38/17 36/36/17 35/35/17
f 41/41/23 42/45/23 39/38/23
f 40/40/25 36/36/25 43/42/25
f 43/42/9 47/50/9 48/47/9
f 46/46/10 42/45/10 49/48/10
f 52/52/11 47/50/11 46/46/11
f 57/56/65 54/54/65 53/53/65
f 59/59/13 60/63/13 57/56/13
f 58/58/7 54/54/7 61/60/7
f 61/60/11 65/68/11 66/65/11
f 64/64/16 60/63/16 67/66/16
f 70/70/30 65/68/30 64/64/30
f 71/71/1 72/75/1 73/72/1
f 73/72/31 77/81/31 78/77/31
f 81/79/36 72/75/36 75/74/36
f 79/78/36 80/83/36 81/79/36
f 86/84/9 84/90/9 81/79/9
f 84/90/9 85/89/9 81/79/9
f 83/82/66 77/81/66 88/86/66
f 88/86/16 85/89/16 90/88/16
f 94/94/7 95/97/7 92/92/7
f 92/92/6 96/99/6 97/95/6
f 99/98/12 95/97/12 101/101/12
f 96/99/67 103/103/67 104/104/67
f 105/105/18 103/103/18 99/98/18
f 109/109/22 108/108/22 111/111/22
f 114/113/68 108/108/68 110/110/68
f 111/111/13 115/118/13 116/115/13
f 117/116/20 118/121/20 114/113/20
f 122/122/9 115/118/9 119/117/9
f 119/117/12 118/121/12 124/124/12
f 126/137/47 1/163/47 4/164/47
f 126/137/69 4/164/69 7/134/69
f 13/165/47 133/133/47 130/130/47
f 11/166/47 13/165/47 130/130/47
f 130/130/47 126/137/47 7/134/47
f 10/135/47 11/166/47 130/130/47
f 133/133/47 13/167/47 14/168/47
f 133/133/47 14/168/47 12/169/47
f 5/136/47 1/163/47 126/137/47
f 133/133/47 12/169/47 8/170/47
f 8/170/70 5/136/70 133/133/70
f 133/133/50 129/129/50 15/141/50
f 129/129/50 56/171/50 53/172/50
f 129/129/50 53/172/50 55/173/50
f 17/174/71 21/175/71 133/133/71
f 66/176/50 69/177/50 15/141/50
f 15/141/51 17/174/51 133/133/51
f 129/129/50 55/173/50 15/141/50
f 55/173/51 58/139/51 15/141/51
f 62/140/50 66/176/50 15/141/50
f 135/142/51 22/178/51 69/177/51
f 22/178/72 18/179/72 69/177/72
f 18/179/50 15/141/50 69/177/50
f 59/180/50 56/171/50 129/129/50
f 63/144/51 59/180/51 129/129/51
f 135/142/50 69/177/50 70/181/50
f 135/142/50 70/181/50 68/182/50
f 63/144/50 129/129/50 135/142/50
f 135/142/50 68/182/50 67/143/50
f 132/132/54 100/183/54 104/184/54
f 132/132/54 104/184/54 106/185/54
f 84/186/54 86/187/54 136/156/54
f 90/188/54 84/186/54 136/156/54
f 136/156/73 132/132/73 106/185/73
f 136/156/73 106/185/73 105/189/73
f 89/190/54 90/188/54 136/156/54
f 98/146/73 78/191/73 83/147/73
f 83/147/54 89/190/54 102/192/54
f 89/190/54 136/156/54 102/192/54
f 83/147/54 102/192/54 101/145/54
f 136/156/54 105/189/54 102/192/54
f 130/130/73 79/151/73 75/193/73
f 130/130/54 75/193/54 71/194/54
f 97/195/54 100/183/54 132/132/54
f 93/196/74 97/195/74 132/132/74
f 130/130/54 71/194/54 74/148/54
f 74/148/54 78/191/54 94/197/54
f 78/191/54 98/146/54 94/197/54
f 93/196/54 132/132/54 130/130/54
f 74/148/54 94/197/54 91/149/54
f 91/149/54 93/196/54 130/130/54
f 79/151/55 130/130/55 133/133/55
f 133/133/55 136/156/55 80/150/55
f 136/156/55 86/187/55 80/150/55
f 135/142/56 131/131/56 120/198/56
f 131/131/56 112/199/56 116/200/56
f 131/131/56 116/200/56 120/198/56
f 121/201/56 134/138/56 135/142/56
f 124/202/56 121/201/56 135/142/56
f 135/142/56 120/198/56 122/152/56
f 123/153/56 124/202/56 135/142/56
f 112/199/75 131/131/75 109/203/75
f 131/131/56 134/138/56 107/155/56
f 109/203/56 131/131/56 107/155/56
f 134/138/76 121/201/76 117/204/76
f 134/138/56 117/204/56 113/205/56
f 134/138/56 113/205/56 110/154/56
f 133/133/77 21/175/77 20/206/77
f 133/133/58 20/206/58 26/207/58
f 23/208/58 22/178/58 135/142/58
f 27/209/77 23/208/77 135/142/77
f 133/133/58 26/207/58 30/210/58
f 133/133/77 30/210/77 33/157/77
f 27/209/58 135/142/58 31/211/58
f 135/142/58 136/156/58 31/211/58
f 136/156/58 133/133/58 33/157/58
f 34/158/58 31/211/58 136/156/58
f 134/138/59 38/212/59 35/213/59
f 134/138/59 35/213/59 37/214/59
f 51/215/59 136/156/59 135/142/59
f 48/216/59 51/215/59 135/142/59
f 135/142/59 134/138/59 37/214/59
f 135/142/59 37/214/59 40/159/59
f 44/160/78 48/216/78 135/142/78
f 38/212/59 134/138/59 41/217/59
f 134/138/59 136/156/59 41/217/59
f 136/156/78 51/215/78 52/218/78
f 136/156/59 52/218/59 50/219/59
f 45/162/59 41/217/59 136/156/59
f 136/156/59 50/219/59 49/161/59
